<svg width="41" height="41" viewBox="0 0 41 41" fill="none" xmlns="http://www.w3.org/2000/svg">
<rect x="0.356934" y="0.507812" width="40" height="40" rx="20" fill="white" fill-opacity="0.04"/>
<g clip-path="url(#clip0_13_1773)">
<path fill-rule="evenodd" clip-rule="evenodd" d="M21.9812 14.861C22.265 14.6088 22.6995 14.6343 22.9518 14.9181L27.5148 20.0514C27.7463 20.312 27.7463 20.7045 27.5148 20.965L22.9518 26.0983C22.6995 26.3821 22.265 26.4076 21.9812 26.1553C21.6974 25.9032 21.6719 25.4686 21.9241 25.1848L25.47 21.1957H13.7093C13.3296 21.1957 13.0218 20.8879 13.0218 20.5082C13.0218 20.1285 13.3296 19.8207 13.7093 19.8207H25.47L21.9241 15.8316C21.6719 15.5479 21.6974 15.1133 21.9812 14.861Z" fill="white"/>
</g>
<defs>
<clipPath id="clip0_13_1773">
<rect width="22" height="22" fill="white" transform="translate(9.35693 9.50781)"/>
</clipPath>
</defs>
</svg>
