<svg width="172" height="49" viewBox="0 0 172 49" fill="none" xmlns="http://www.w3.org/2000/svg">
<rect x="0.806946" y="1.00781" width="170.25" height="47" rx="15.5" fill="white"/>
<path d="M56.1059 23.1442H53.302C53.2821 22.9122 53.2291 22.7017 53.1429 22.5128C53.06 22.3239 52.944 22.1615 52.7949 22.0256C52.649 21.8864 52.4717 21.7803 52.2629 21.7074C52.0541 21.6312 51.8171 21.593 51.552 21.593C51.088 21.593 50.6952 21.7057 50.3737 21.9311C50.0555 22.1565 49.8136 22.4796 49.6479 22.9006C49.4854 23.3215 49.4042 23.8269 49.4042 24.4169C49.4042 25.04 49.4871 25.562 49.6528 25.983C49.8219 26.4006 50.0655 26.7154 50.3836 26.9276C50.7018 27.1364 51.0846 27.2408 51.5321 27.2408C51.7873 27.2408 52.016 27.2093 52.2182 27.1463C52.4203 27.08 52.596 26.9856 52.7452 26.8629C52.8943 26.7403 53.0153 26.5928 53.1081 26.4205C53.2042 26.2448 53.2688 26.0476 53.302 25.8288L56.1059 25.8487C56.0728 26.2796 55.9518 26.7187 55.743 27.1662C55.5342 27.6103 55.2376 28.0213 54.8531 28.3991C54.472 28.7737 53.9996 29.0753 53.4362 29.304C52.8728 29.5327 52.2182 29.647 51.4724 29.647C50.5378 29.647 49.6992 29.4465 48.9568 29.0455C48.2177 28.6444 47.6327 28.0545 47.2018 27.2756C46.7743 26.4967 46.5605 25.5438 46.5605 24.4169C46.5605 23.2834 46.7792 22.3288 47.2167 21.5533C47.6542 20.7744 48.2442 20.1861 48.9866 19.7884C49.7291 19.3873 50.5577 19.1868 51.4724 19.1868C52.1154 19.1868 52.707 19.2746 53.2473 19.4503C53.7875 19.6259 54.2615 19.8828 54.6692 20.2209C55.0768 20.5556 55.405 20.9683 55.6535 21.4588C55.9021 21.9493 56.0529 22.5111 56.1059 23.1442ZM57.3998 29.5078V21.8714H60.0646V23.3232H60.1441C60.2833 22.7862 60.5037 22.3935 60.8053 22.1449C61.1103 21.8963 61.4666 21.772 61.8742 21.772C61.9936 21.772 62.1112 21.782 62.2272 21.8018C62.3465 21.8184 62.4609 21.8433 62.5703 21.8764V24.218C62.4344 24.1716 62.267 24.1368 62.0681 24.1136C61.8693 24.0904 61.6986 24.0788 61.5561 24.0788C61.2876 24.0788 61.0456 24.1402 60.8302 24.2628C60.6181 24.3821 60.4507 24.5511 60.3281 24.7699C60.2054 24.9853 60.1441 25.2389 60.1441 25.5305V29.5078H57.3998ZM66.6917 29.647C65.8764 29.647 65.1737 29.4912 64.5838 29.1797C63.9971 28.8648 63.5447 28.4141 63.2265 27.8274C62.9116 27.2375 62.7542 26.5315 62.7542 25.7095C62.7542 24.9207 62.9133 24.2313 63.2315 23.6413C63.5497 23.0514 63.9988 22.5923 64.5788 22.2642C65.1588 21.9361 65.8432 21.772 66.632 21.772C67.2088 21.772 67.7308 21.8615 68.1981 22.0405C68.6654 22.2195 69.0648 22.4796 69.3963 22.821C69.7277 23.1591 69.9829 23.5701 70.1619 24.054C70.3409 24.5379 70.4303 25.0831 70.4303 25.6896V26.326H63.6093V24.8146H67.9048C67.9015 24.5959 67.8451 24.4036 67.7357 24.2379C67.6297 24.0689 67.4855 23.938 67.3032 23.8452C67.1242 23.7491 66.9204 23.701 66.6917 23.701C66.4696 23.701 66.2658 23.7491 66.0802 23.8452C65.8946 23.938 65.7454 24.0672 65.6328 24.233C65.5234 24.3987 65.4654 24.5926 65.4588 24.8146V26.4453C65.4588 26.6906 65.5101 26.9093 65.6129 27.1016C65.7156 27.2938 65.8631 27.4446 66.0553 27.554C66.2476 27.6634 66.4796 27.718 66.7514 27.718C66.9403 27.718 67.1126 27.6915 67.2684 27.6385C67.4275 27.5855 67.5634 27.5092 67.6761 27.4098C67.7888 27.3071 67.8716 27.1844 67.9247 27.0419H70.4303C70.3442 27.5722 70.1403 28.0329 69.8188 28.424C69.4973 28.8118 69.0714 29.1134 68.5411 29.3288C68.0142 29.541 67.3977 29.647 66.6917 29.647ZM73.678 29.6271C73.1908 29.6271 72.7599 29.5476 72.3854 29.3885C72.0142 29.2261 71.7225 28.9808 71.5104 28.6527C71.2983 28.3246 71.1922 27.907 71.1922 27.3999C71.1922 26.9822 71.2635 26.6259 71.406 26.331C71.5485 26.0327 71.7474 25.7891 72.0026 25.6001C72.2578 25.4112 72.5545 25.267 72.8925 25.1676C73.2339 25.0682 73.6018 25.0036 73.9962 24.9737C74.4238 24.9406 74.7668 24.9008 75.0253 24.8544C75.2872 24.8047 75.4761 24.7367 75.5921 24.6506C75.7081 24.5611 75.7661 24.4434 75.7661 24.2976V24.2777C75.7661 24.0788 75.6899 23.9264 75.5374 23.8203C75.3849 23.7143 75.1894 23.6612 74.9508 23.6612C74.6889 23.6612 74.4751 23.7192 74.3094 23.8352C74.147 23.9479 74.0492 24.1219 74.0161 24.3572H71.4905C71.5237 23.8932 71.6712 23.4657 71.933 23.0746C72.1982 22.6802 72.5843 22.3653 73.0914 22.13C73.5985 21.8913 74.2315 21.772 74.9905 21.772C75.5374 21.772 76.0279 21.8366 76.4621 21.9659C76.8963 22.0919 77.2659 22.2692 77.5708 22.4979C77.8757 22.7232 78.1077 22.9884 78.2668 23.2933C78.4292 23.5949 78.5104 23.9231 78.5104 24.2777V29.5078H75.9451V28.4339H75.8854C75.733 28.719 75.5474 28.9493 75.3286 29.125C75.1132 29.3007 74.8662 29.4283 74.5878 29.5078C74.3127 29.5874 74.0095 29.6271 73.678 29.6271ZM74.5729 27.897C74.7817 27.897 74.9773 27.8539 75.1596 27.7678C75.3452 27.6816 75.496 27.5573 75.612 27.3949C75.728 27.2325 75.786 27.0353 75.786 26.8033V26.1669C75.7131 26.1967 75.6352 26.2249 75.5523 26.2514C75.4728 26.2779 75.3866 26.3028 75.2938 26.326C75.2043 26.3492 75.1082 26.3707 75.0055 26.3906C74.906 26.4105 74.8016 26.4287 74.6922 26.4453C74.4801 26.4785 74.3061 26.5331 74.1702 26.6094C74.0376 26.6823 73.9382 26.7734 73.8719 26.8828C73.809 26.9889 73.7775 27.1082 73.7775 27.2408C73.7775 27.4529 73.852 27.6153 74.0012 27.728C74.1503 27.8407 74.3409 27.897 74.5729 27.897ZM84.3757 21.8714V23.8601H79.3444V21.8714H84.3757ZM80.3188 20.0419H83.0632V27.0518C83.0632 27.1579 83.0814 27.2474 83.1178 27.3203C83.1543 27.3899 83.2106 27.4429 83.2869 27.4794C83.3631 27.5125 83.4609 27.5291 83.5802 27.5291C83.6631 27.5291 83.7592 27.5192 83.8686 27.4993C83.9812 27.4794 84.0641 27.4628 84.1171 27.4496L84.5149 29.3786C84.3922 29.415 84.2166 29.4598 83.9879 29.5128C83.7625 29.5658 83.494 29.6006 83.1825 29.6172C82.5527 29.6503 82.0241 29.5857 81.5965 29.4233C81.169 29.2576 80.8475 28.9974 80.632 28.6428C80.4166 28.2881 80.3122 27.844 80.3188 27.3104V20.0419ZM89.0726 29.647C88.2572 29.647 87.5546 29.4912 86.9646 29.1797C86.378 28.8648 85.9255 28.4141 85.6074 27.8274C85.2925 27.2375 85.1351 26.5315 85.1351 25.7095C85.1351 24.9207 85.2942 24.2313 85.6123 23.6413C85.9305 23.0514 86.3796 22.5923 86.9596 22.2642C87.5397 21.9361 88.2241 21.772 89.0129 21.772C89.5896 21.772 90.1116 21.8615 90.579 22.0405C91.0463 22.2195 91.4457 22.4796 91.7771 22.821C92.1086 23.1591 92.3638 23.5701 92.5427 24.054C92.7217 24.5379 92.8112 25.0831 92.8112 25.6896V26.326H85.9902V24.8146H90.2856C90.2823 24.5959 90.226 24.4036 90.1166 24.2379C90.0105 24.0689 89.8664 23.938 89.6841 23.8452C89.5051 23.7491 89.3013 23.701 89.0726 23.701C88.8505 23.701 88.6467 23.7491 88.4611 23.8452C88.2755 23.938 88.1263 24.0672 88.0136 24.233C87.9042 24.3987 87.8462 24.5926 87.8396 24.8146V26.4453C87.8396 26.6906 87.891 26.9093 87.9937 27.1016C88.0965 27.2938 88.244 27.4446 88.4362 27.554C88.6284 27.6634 88.8604 27.718 89.1322 27.718C89.3211 27.718 89.4935 27.6915 89.6493 27.6385C89.8084 27.5855 89.9443 27.5092 90.0569 27.4098C90.1696 27.3071 90.2525 27.1844 90.3055 27.0419H92.8112C92.725 27.5722 92.5212 28.0329 92.1997 28.424C91.8782 28.8118 91.4523 29.1134 90.922 29.3288C90.395 29.541 89.7785 29.647 89.0726 29.647ZM105.49 19.326V29.5078H103.183L99.5042 24.1584H99.4445V29.5078H96.6803V19.326H99.0269L102.646 24.6555H102.726V19.326H105.49ZM106.798 29.5078V19.326H113.957V21.5533H109.562V23.3033H113.519V25.5305H109.562V29.5078H106.798ZM114.695 21.5533V19.326H123.544V21.5533H120.482V29.5078H117.757V21.5533H114.695ZM130.565 24.3572H128.04C128.027 24.2015 127.972 24.0672 127.876 23.9545C127.78 23.8419 127.655 23.7557 127.503 23.696C127.354 23.633 127.188 23.6016 127.006 23.6016C126.77 23.6016 126.568 23.6446 126.399 23.7308C126.23 23.817 126.147 23.9396 126.151 24.0987C126.147 24.2114 126.195 24.3158 126.295 24.4119C126.398 24.508 126.595 24.5826 126.886 24.6357L128.438 24.9141C129.22 25.0566 129.801 25.2969 130.183 25.6349C130.567 25.9697 130.761 26.4188 130.764 26.9822C130.761 27.5258 130.599 27.9981 130.277 28.3991C129.959 28.7969 129.523 29.1051 128.97 29.3239C128.419 29.5393 127.791 29.647 127.085 29.647C125.919 29.647 125.006 29.4084 124.346 28.9311C123.69 28.4538 123.324 27.8241 123.247 27.0419H125.972C126.008 27.2839 126.127 27.4711 126.33 27.6037C126.535 27.733 126.794 27.7976 127.105 27.7976C127.357 27.7976 127.564 27.7545 127.727 27.6683C127.892 27.5821 127.977 27.4595 127.98 27.3004C127.977 27.1546 127.904 27.0386 127.761 26.9524C127.622 26.8662 127.404 26.7966 127.105 26.7436L125.753 26.505C124.974 26.3691 124.391 26.1106 124.003 25.7294C123.615 25.3482 123.423 24.8577 123.426 24.2578C123.423 23.7275 123.562 23.2784 123.844 22.9105C124.129 22.5393 124.535 22.2576 125.062 22.0653C125.592 21.8698 126.22 21.772 126.946 21.772C128.05 21.772 128.92 22.0007 129.556 22.4581C130.196 22.9155 130.532 23.5485 130.565 24.3572Z" fill="#191C1F"/>
<rect x="0.806946" y="1.00781" width="170.25" height="47" rx="15.5" stroke="white"/>
</svg>
