<svg width="33" height="33" viewBox="0 0 33 33" fill="none" xmlns="http://www.w3.org/2000/svg">
<g clip-path="url(#clip0_13_2089)">
<path d="M5.40058 12.4351H27.2815C27.8669 12.4351 28.3469 11.9804 28.3469 11.4259C28.3469 10.8713 27.8669 10.4277 27.2815 10.4277H5.40058C4.81521 10.4277 4.34692 10.8713 4.34692 11.4259C4.34692 11.9693 4.81521 12.4351 5.40058 12.4351ZM5.40058 17.4259H27.2815C27.8669 17.4259 28.3469 16.9711 28.3469 16.4277C28.3469 15.8621 27.8669 15.4074 27.2815 15.4074H5.40058C4.81521 15.4074 4.34692 15.8621 4.34692 16.4277C4.34692 16.9711 4.81521 17.4259 5.40058 17.4259ZM5.40058 22.4277H27.2815C27.8669 22.4277 28.3469 21.973 28.3469 21.4074C28.3469 20.8528 27.8669 20.4092 27.2815 20.4092H5.40058C4.81521 20.4092 4.34692 20.8639 4.34692 21.4074C4.34692 21.9619 4.81521 22.4277 5.40058 22.4277Z" fill="white"/>
</g>
<defs>
<clipPath id="clip0_13_2089">
<rect width="32" height="32" fill="white" transform="translate(0.346924 0.427734)"/>
</clipPath>
</defs>
</svg>
