<svg width="268" height="57" viewBox="0 0 268 57" fill="none" xmlns="http://www.w3.org/2000/svg">
<rect x="0.356934" y="0.507812" width="267" height="56" rx="16" fill="white" fill-opacity="0.04"/>
<path d="M105.875 34.5078V22.8714H109.034V31.9624H113.739V34.5078H105.875ZM115.061 34.5078V25.7805H118.198V34.5078H115.061ZM116.629 24.8714C116.205 24.8714 115.841 24.7313 115.538 24.451C115.235 24.1707 115.084 23.8336 115.084 23.4396C115.084 23.0457 115.235 22.7086 115.538 22.4283C115.841 22.148 116.205 22.0078 116.629 22.0078C117.057 22.0078 117.421 22.148 117.72 22.4283C118.023 22.7086 118.175 23.0457 118.175 23.4396C118.175 23.8336 118.023 24.1707 117.72 24.451C117.421 24.7313 117.057 24.8714 116.629 24.8714ZM127.773 28.6214H124.886C124.871 28.4434 124.809 28.29 124.699 28.1612C124.589 28.0324 124.447 27.9339 124.273 27.8658C124.102 27.7938 123.913 27.7578 123.705 27.7578C123.436 27.7578 123.205 27.8071 123.011 27.9055C122.818 28.004 122.724 28.1442 122.727 28.326C122.724 28.4548 122.778 28.5741 122.892 28.6839C123.01 28.7938 123.235 28.879 123.568 28.9396L125.341 29.2578C126.235 29.4207 126.9 29.6953 127.335 30.0817C127.775 30.4643 127.996 30.9775 128 31.6214C127.996 32.2427 127.811 32.7824 127.443 33.2408C127.08 33.6953 126.582 34.0476 125.949 34.2976C125.32 34.5438 124.602 34.6669 123.796 34.6669C122.462 34.6669 121.419 34.3942 120.665 33.8487C119.915 33.3033 119.496 32.5836 119.409 31.6896H122.523C122.564 31.9661 122.701 32.1802 122.932 32.3317C123.167 32.4794 123.462 32.5533 123.818 32.5533C124.106 32.5533 124.343 32.504 124.528 32.4055C124.718 32.3071 124.814 32.1669 124.818 31.9851C124.814 31.8184 124.731 31.6858 124.568 31.5874C124.409 31.4889 124.159 31.4093 123.818 31.3487L122.273 31.076C121.383 30.9207 120.716 30.6252 120.273 30.1896C119.83 29.754 119.61 29.1934 119.614 28.5078C119.61 27.9018 119.769 27.3885 120.091 26.968C120.417 26.5438 120.881 26.2218 121.483 26.0021C122.089 25.7786 122.807 25.6669 123.636 25.6669C124.898 25.6669 125.892 25.9283 126.619 26.451C127.35 26.9737 127.735 27.6972 127.773 28.6214ZM134.406 25.7805V28.0533H128.656V25.7805H134.406ZM129.77 23.6896H132.906V31.701C132.906 31.8222 132.927 31.9245 132.969 32.0078C133.01 32.0874 133.075 32.148 133.162 32.1896C133.249 32.2275 133.361 32.2464 133.497 32.2464C133.592 32.2464 133.702 32.2351 133.827 32.2124C133.956 32.1896 134.05 32.1707 134.111 32.1555L134.565 34.3601C134.425 34.4018 134.224 34.4529 133.963 34.5135C133.706 34.5741 133.399 34.6139 133.043 34.6328C132.323 34.6707 131.719 34.5968 131.23 34.4112C130.742 34.2218 130.374 33.9245 130.128 33.5192C129.882 33.1139 129.762 32.6063 129.77 31.9964V23.6896ZM148.896 22.8714V34.5078H146.26L142.055 28.3942H141.987V34.5078H138.828V22.8714H141.51L145.646 28.9624H145.737V22.8714H148.896ZM150.391 34.5078V22.8714H158.573V25.4169H153.55V27.4169H158.073V29.9624H153.55V34.5078H150.391ZM159.416 25.4169V22.8714H169.53V25.4169H166.03V34.5078H162.916V25.4169H159.416Z" fill="white"/>
</svg>
