<svg width="312" height="49" viewBox="0 0 312 49" fill="none" xmlns="http://www.w3.org/2000/svg">
<g clip-path="url(#clip0_9_354)">
<path d="M42.8012 12.5396L33.4321 19.4981L35.1647 15.3927L42.8012 12.5396Z" fill="#E2761B" stroke="#E2761B" stroke-width="0.094162" stroke-linecap="round" stroke-linejoin="round"/>
<path d="M21.1722 12.5396L30.466 19.564L28.8182 15.3927L21.1722 12.5396Z" fill="#E4761B" stroke="#E4761B" stroke-width="0.094162" stroke-linecap="round" stroke-linejoin="round"/>
<path d="M39.4304 28.6694L36.9351 32.4924L42.274 33.9613L43.8089 28.7542L39.4304 28.6694Z" fill="#E4761B" stroke="#E4761B" stroke-width="0.094162" stroke-linecap="round" stroke-linejoin="round"/>
<path d="M20.1836 28.7542L21.709 33.9613L27.048 32.4924L24.5527 28.6694L20.1836 28.7542Z" fill="#E4761B" stroke="#E4761B" stroke-width="0.094162" stroke-linecap="round" stroke-linejoin="round"/>
<path d="M26.7467 22.2099L25.2589 24.4604L30.5602 24.6958L30.3719 18.999L26.7467 22.2099Z" fill="#E4761B" stroke="#E4761B" stroke-width="0.094162" stroke-linecap="round" stroke-linejoin="round"/>
<path d="M37.2269 22.2099L33.5545 18.9331L33.4321 24.6958L38.724 24.4604L37.2269 22.2099Z" fill="#E4761B" stroke="#E4761B" stroke-width="0.094162" stroke-linecap="round" stroke-linejoin="round"/>
<path d="M27.048 32.4924L30.2306 30.9388L27.4811 28.7919L27.048 32.4924Z" fill="#E4761B" stroke="#E4761B" stroke-width="0.094162" stroke-linecap="round" stroke-linejoin="round"/>
<path d="M33.7429 30.9388L36.935 32.4924L36.4925 28.7919L33.7429 30.9388Z" fill="#E4761B" stroke="#E4761B" stroke-width="0.094162" stroke-linecap="round" stroke-linejoin="round"/>
<path d="M36.935 32.4924L33.7429 30.9387L33.9972 33.0197L33.9689 33.8954L36.935 32.4924Z" fill="#D7C1B3" stroke="#D7C1B3" stroke-width="0.094162" stroke-linecap="round" stroke-linejoin="round"/>
<path d="M27.048 32.4924L30.0141 33.8954L29.9952 33.0197L30.2306 30.9387L27.048 32.4924Z" fill="#D7C1B3" stroke="#D7C1B3" stroke-width="0.094162" stroke-linecap="round" stroke-linejoin="round"/>
<path d="M30.0611 27.4171L27.4058 26.6356L29.2796 25.7787L30.0611 27.4171Z" fill="#233447" stroke="#233447" stroke-width="0.094162" stroke-linecap="round" stroke-linejoin="round"/>
<path d="M33.9124 27.4171L34.6939 25.7787L36.5771 26.6356L33.9124 27.4171Z" fill="#233447" stroke="#233447" stroke-width="0.094162" stroke-linecap="round" stroke-linejoin="round"/>
<path d="M27.0479 32.4924L27.4999 28.6694L24.5526 28.7542L27.0479 32.4924Z" fill="#CD6116" stroke="#CD6116" stroke-width="0.094162" stroke-linecap="round" stroke-linejoin="round"/>
<path d="M36.4829 28.6694L36.9349 32.4924L39.4302 28.7542L36.4829 28.6694Z" fill="#CD6116" stroke="#CD6116" stroke-width="0.094162" stroke-linecap="round" stroke-linejoin="round"/>
<path d="M38.724 24.4604L33.4321 24.6959L33.9218 27.4171L34.7033 25.7787L36.5866 26.6356L38.724 24.4604Z" fill="#CD6116" stroke="#CD6116" stroke-width="0.094162" stroke-linecap="round" stroke-linejoin="round"/>
<path d="M27.4057 26.6356L29.2889 25.7787L30.061 27.4171L30.5601 24.6959L25.2588 24.4604L27.4057 26.6356Z" fill="#CD6116" stroke="#CD6116" stroke-width="0.094162" stroke-linecap="round" stroke-linejoin="round"/>
<path d="M25.2589 24.4604L27.4811 28.7919L27.4058 26.6356L25.2589 24.4604Z" fill="#E4751F" stroke="#E4751F" stroke-width="0.094162" stroke-linecap="round" stroke-linejoin="round"/>
<path d="M36.5866 26.6356L36.4924 28.7919L38.7241 24.4604L36.5866 26.6356Z" fill="#E4751F" stroke="#E4751F" stroke-width="0.094162" stroke-linecap="round" stroke-linejoin="round"/>
<path d="M30.5602 24.6958L30.0612 27.4171L30.6826 30.628L30.8239 26.4001L30.5602 24.6958Z" fill="#E4751F" stroke="#E4751F" stroke-width="0.094162" stroke-linecap="round" stroke-linejoin="round"/>
<path d="M33.4322 24.6958L33.178 26.3907L33.291 30.628L33.9219 27.4171L33.4322 24.6958Z" fill="#E4751F" stroke="#E4751F" stroke-width="0.094162" stroke-linecap="round" stroke-linejoin="round"/>
<path d="M33.9218 27.4172L33.2909 30.6281L33.7429 30.9388L36.4924 28.7919L36.5866 26.6356L33.9218 27.4172Z" fill="#F6851B" stroke="#F6851B" stroke-width="0.094162" stroke-linecap="round" stroke-linejoin="round"/>
<path d="M27.4058 26.6356L27.4811 28.7919L30.2306 30.9388L30.6826 30.6281L30.0611 27.4172L27.4058 26.6356Z" fill="#F6851B" stroke="#F6851B" stroke-width="0.094162" stroke-linecap="round" stroke-linejoin="round"/>
<path d="M33.9689 33.8954L33.9971 33.0197L33.7617 32.8126H30.2118L29.9952 33.0197L30.0141 33.8954L27.048 32.4924L28.0838 33.3399L30.1836 34.7994H33.79L35.8992 33.3399L36.935 32.4924L33.9689 33.8954Z" fill="#C0AD9E" stroke="#C0AD9E" stroke-width="0.094162" stroke-linecap="round" stroke-linejoin="round"/>
<path d="M33.7429 30.9388L33.2909 30.6281H30.6826L30.2306 30.9388L29.9952 33.0198L30.2118 32.8126H33.7617L33.9971 33.0198L33.7429 30.9388Z" fill="#161616" stroke="#161616" stroke-width="0.094162" stroke-linecap="round" stroke-linejoin="round"/>
<path d="M43.1968 19.9501L43.9972 16.1083L42.8013 12.5396L33.7429 19.2627L37.2269 22.21L42.1516 23.6507L43.2439 22.3795L42.7731 22.0405L43.5263 21.3531L42.9425 20.9011L43.6958 20.3267L43.1968 19.9501Z" fill="#763D16" stroke="#763D16" stroke-width="0.094162" stroke-linecap="round" stroke-linejoin="round"/>
<path d="M19.9858 16.1083L20.7862 19.9501L20.2777 20.3267L21.031 20.9011L20.4566 21.3531L21.2099 22.0405L20.7391 22.3795L21.822 23.6507L26.7467 22.21L30.2307 19.2627L21.1723 12.5396L19.9858 16.1083Z" fill="#763D16" stroke="#763D16" stroke-width="0.094162" stroke-linecap="round" stroke-linejoin="round"/>
<path d="M42.1516 23.6506L37.2269 22.21L38.7241 24.4604L36.4924 28.7919L39.4303 28.7542H43.8088L42.1516 23.6506Z" fill="#F6851B" stroke="#F6851B" stroke-width="0.094162" stroke-linecap="round" stroke-linejoin="round"/>
<path d="M26.7467 22.21L21.822 23.6506L20.1836 28.7542H24.5527L27.4811 28.7919L25.2589 24.4604L26.7467 22.21Z" fill="#F6851B" stroke="#F6851B" stroke-width="0.094162" stroke-linecap="round" stroke-linejoin="round"/>
<path d="M33.4322 24.6958L33.7429 19.2626L35.1742 15.3926H28.8182L30.2307 19.2626L30.5602 24.6958L30.6732 26.4095L30.6826 30.628H33.2909L33.3098 26.4095L33.4322 24.6958Z" fill="#F6851B" stroke="#F6851B" stroke-width="0.094162" stroke-linecap="round" stroke-linejoin="round"/>
</g>
<path d="M61.8772 19.015H65.3175L67.684 24.782H67.8033L70.1698 19.015H73.6102V29.1968H70.9056V23.3104H70.8261L68.559 29.1172H66.9283L64.6613 23.2706H64.5817V29.1968H61.8772V19.015ZM78.619 29.336C77.8037 29.336 77.101 29.1802 76.5111 28.8687C75.9244 28.5538 75.472 28.103 75.1538 27.5164C74.839 26.9264 74.6815 26.2205 74.6815 25.3985C74.6815 24.6097 74.8406 23.9203 75.1588 23.3303C75.477 22.7403 75.9261 22.2813 76.5061 21.9532C77.0861 21.625 77.7705 21.461 78.5594 21.461C79.1361 21.461 79.6581 21.5505 80.1254 21.7294C80.5928 21.9084 80.9921 22.1686 81.3236 22.51C81.655 22.8481 81.9102 23.259 82.0892 23.7429C82.2682 24.2268 82.3577 24.7721 82.3577 25.3786V26.015H75.5366V24.5036H79.8321C79.8288 24.2848 79.7724 24.0926 79.6631 23.9269C79.557 23.7579 79.4128 23.6269 79.2305 23.5341C79.0516 23.438 78.8477 23.39 78.619 23.39C78.397 23.39 78.1931 23.438 78.0075 23.5341C77.8219 23.6269 77.6728 23.7562 77.5601 23.9219C77.4507 24.0876 77.3927 24.2815 77.3861 24.5036V26.1343C77.3861 26.3795 77.4374 26.5983 77.5402 26.7905C77.6429 26.9828 77.7904 27.1336 77.9827 27.2429C78.1749 27.3523 78.4069 27.407 78.6787 27.407C78.8676 27.407 79.04 27.3805 79.1957 27.3275C79.3548 27.2744 79.4907 27.1982 79.6034 27.0988C79.7161 26.996 79.799 26.8734 79.852 26.7309H82.3577C82.2715 27.2612 82.0677 27.7219 81.7462 28.113C81.4247 28.5008 80.9988 28.8024 80.4685 29.0178C79.9415 29.2299 79.325 29.336 78.619 29.336ZM88.0315 21.5604V23.5491H83.0002V21.5604H88.0315ZM83.9747 19.7309H86.719V26.7408C86.719 26.8469 86.7372 26.9364 86.7737 27.0093C86.8101 27.0789 86.8665 27.1319 86.9427 27.1684C87.0189 27.2015 87.1167 27.2181 87.236 27.2181C87.3189 27.2181 87.415 27.2081 87.5244 27.1883C87.6371 27.1684 87.7199 27.1518 87.773 27.1385L88.1707 29.0675C88.0481 29.104 87.8724 29.1487 87.6437 29.2017C87.4183 29.2548 87.1499 29.2896 86.8383 29.3062C86.2086 29.3393 85.6799 29.2747 85.2524 29.1123C84.8248 28.9465 84.5033 28.6864 84.2879 28.3317C84.0725 27.9771 83.968 27.533 83.9747 26.9993V19.7309ZM91.2792 29.3161C90.792 29.3161 90.3611 29.2366 89.9866 29.0775C89.6154 28.9151 89.3237 28.6698 89.1116 28.3417C88.8995 28.0135 88.7934 27.5959 88.7934 27.0888C88.7934 26.6712 88.8646 26.3149 89.0072 26.0199C89.1497 25.7216 89.3486 25.478 89.6038 25.2891C89.859 25.1002 90.1556 24.956 90.4937 24.8566C90.8351 24.7571 91.203 24.6925 91.5974 24.6627C92.0249 24.6295 92.368 24.5898 92.6265 24.5434C92.8883 24.4937 93.0772 24.4257 93.1932 24.3395C93.3093 24.25 93.3673 24.1324 93.3673 23.9866V23.9667C93.3673 23.7678 93.291 23.6153 93.1386 23.5093C92.9861 23.4032 92.7905 23.3502 92.5519 23.3502C92.2901 23.3502 92.0763 23.4082 91.9106 23.5242C91.7482 23.6369 91.6504 23.8109 91.6173 24.0462H89.0917C89.1248 23.5822 89.2723 23.1546 89.5342 22.7635C89.7993 22.3691 90.1854 22.0543 90.6925 21.8189C91.1996 21.5803 91.8327 21.461 92.5917 21.461C93.1386 21.461 93.6291 21.5256 94.0633 21.6549C94.4975 21.7808 94.867 21.9581 95.1719 22.1868C95.4769 22.4122 95.7089 22.6774 95.868 22.9823C96.0304 23.2839 96.1116 23.612 96.1116 23.9667V29.1968H93.5462V28.1229H93.4866C93.3341 28.408 93.1485 28.6383 92.9298 28.814C92.7143 28.9896 92.4674 29.1172 92.189 29.1968C91.9139 29.2763 91.6106 29.3161 91.2792 29.3161ZM92.1741 27.586C92.3829 27.586 92.5784 27.5429 92.7607 27.4567C92.9463 27.3705 93.0971 27.2463 93.2131 27.0839C93.3291 26.9214 93.3871 26.7242 93.3871 26.4922V25.8559C93.3142 25.8857 93.2363 25.9139 93.1535 25.9404C93.0739 25.9669 92.9878 25.9918 92.895 26.015C92.8055 26.0382 92.7093 26.0597 92.6066 26.0796C92.5072 26.0995 92.4028 26.1177 92.2934 26.1343C92.0813 26.1674 91.9073 26.2221 91.7714 26.2983C91.6388 26.3713 91.5394 26.4624 91.4731 26.5718C91.4101 26.6778 91.3786 26.7972 91.3786 26.9297C91.3786 27.1419 91.4532 27.3043 91.6023 27.4169C91.7515 27.5296 91.9421 27.586 92.1741 27.586ZM97.3831 19.015H100.823L103.19 24.782H103.309L105.676 19.015H109.116V29.1968H106.411V23.3104H106.332L104.065 29.1172H102.434L100.167 23.2706H100.088V29.1968H97.3831V19.015ZM112.594 29.3161C112.106 29.3161 111.676 29.2366 111.301 29.0775C110.93 28.9151 110.638 28.6698 110.426 28.3417C110.214 28.0135 110.108 27.5959 110.108 27.0888C110.108 26.6712 110.179 26.3149 110.322 26.0199C110.464 25.7216 110.663 25.478 110.918 25.2891C111.173 25.1002 111.47 24.956 111.808 24.8566C112.15 24.7571 112.517 24.6925 112.912 24.6627C113.339 24.6295 113.682 24.5898 113.941 24.5434C114.203 24.4937 114.392 24.4257 114.508 24.3395C114.624 24.25 114.682 24.1324 114.682 23.9866V23.9667C114.682 23.7678 114.605 23.6153 114.453 23.5093C114.301 23.4032 114.105 23.3502 113.866 23.3502C113.605 23.3502 113.391 23.4082 113.225 23.5242C113.063 23.6369 112.965 23.8109 112.932 24.0462H110.406C110.439 23.5822 110.587 23.1546 110.849 22.7635C111.114 22.3691 111.5 22.0543 112.007 21.8189C112.514 21.5803 113.147 21.461 113.906 21.461C114.453 21.461 114.944 21.5256 115.378 21.6549C115.812 21.7808 116.181 21.9581 116.486 22.1868C116.791 22.4122 117.023 22.6774 117.182 22.9823C117.345 23.2839 117.426 23.612 117.426 23.9667V29.1968H114.861V28.1229H114.801C114.649 28.408 114.463 28.6383 114.244 28.814C114.029 28.9896 113.782 29.1172 113.503 29.1968C113.228 29.2763 112.925 29.3161 112.594 29.3161ZM113.489 27.586C113.697 27.586 113.893 27.5429 114.075 27.4567C114.261 27.3705 114.412 27.2463 114.528 27.0839C114.644 26.9214 114.702 26.7242 114.702 26.4922V25.8559C114.629 25.8857 114.551 25.9139 114.468 25.9404C114.388 25.9669 114.302 25.9918 114.209 26.015C114.12 26.0382 114.024 26.0597 113.921 26.0796C113.822 26.0995 113.717 26.1177 113.608 26.1343C113.396 26.1674 113.222 26.2221 113.086 26.2983C112.953 26.3713 112.854 26.4624 112.788 26.5718C112.725 26.6778 112.693 26.7972 112.693 26.9297C112.693 27.1419 112.768 27.3043 112.917 27.4169C113.066 27.5296 113.257 27.586 113.489 27.586ZM125.717 24.0462H123.192C123.179 23.8904 123.124 23.7562 123.028 23.6435C122.932 23.5308 122.807 23.4446 122.655 23.385C122.506 23.322 122.34 23.2905 122.158 23.2905C121.922 23.2905 121.72 23.3336 121.551 23.4198C121.382 23.506 121.299 23.6286 121.303 23.7877C121.299 23.9004 121.347 24.0048 121.447 24.1009C121.55 24.197 121.747 24.2716 122.038 24.3246L123.59 24.603C124.372 24.7455 124.953 24.9858 125.335 25.3239C125.719 25.6587 125.913 26.1078 125.916 26.6712C125.913 27.2148 125.751 27.6871 125.429 28.0881C125.111 28.4858 124.675 28.7941 124.122 29.0128C123.571 29.2283 122.943 29.336 122.237 29.336C121.071 29.336 120.158 29.0973 119.498 28.6201C118.842 28.1428 118.475 27.5131 118.399 26.7309H121.124C121.16 26.9728 121.279 27.1601 121.482 27.2927C121.687 27.4219 121.946 27.4866 122.257 27.4866C122.509 27.4866 122.716 27.4435 122.879 27.3573C123.044 27.2711 123.129 27.1485 123.132 26.9894C123.129 26.8436 123.056 26.7276 122.913 26.6414C122.774 26.5552 122.555 26.4856 122.257 26.4326L120.905 26.1939C120.126 26.058 119.543 25.7995 119.155 25.4184C118.767 25.0372 118.575 24.5467 118.578 23.9468C118.575 23.4165 118.714 22.9674 118.996 22.5995C119.281 22.2283 119.687 21.9465 120.214 21.7543C120.744 21.5588 121.372 21.461 122.098 21.461C123.202 21.461 124.072 21.6897 124.708 22.1471C125.348 22.6044 125.684 23.2375 125.717 24.0462ZM129.434 27.3871L129.454 24.1258H129.812L131.661 21.5604H134.743L131.641 25.5576H130.865L129.434 27.3871ZM126.968 29.1968V19.015H129.712V29.1968H126.968ZM131.681 29.1968L129.931 26.1741L131.721 24.2252L134.823 29.1968H131.681Z" fill="white"/>
<rect x="1.26147" y="0.696777" width="310" height="47" rx="15.5" stroke="white" stroke-opacity="0.08"/>
<defs>
<clipPath id="clip0_9_354">
<rect width="32" height="30" fill="white" transform="translate(15.9915 9.19678)"/>
</clipPath>
</defs>
</svg>
