<svg width="312" height="49" viewBox="0 0 312 49" fill="none" xmlns="http://www.w3.org/2000/svg">
<path d="M110.808 19.8182H114.248L116.614 25.5852H116.734L119.1 19.8182H122.541V30H119.836V24.1136H119.756L117.489 29.9205H115.859L113.592 24.0739H113.512V30H110.808V19.8182ZM123.89 30V22.3636H126.635V30H123.89ZM125.263 21.5682C124.891 21.5682 124.573 21.4455 124.308 21.2003C124.043 20.955 123.91 20.66 123.91 20.3153C123.91 19.9706 124.043 19.6757 124.308 19.4304C124.573 19.1851 124.891 19.0625 125.263 19.0625C125.637 19.0625 125.955 19.1851 126.217 19.4304C126.482 19.6757 126.615 19.9706 126.615 20.3153C126.615 20.66 126.482 20.955 126.217 21.2003C125.955 21.4455 125.637 21.5682 125.263 21.5682ZM130.777 25.7045V30H128.033V22.3636H130.638V23.8153H130.718C130.883 23.3314 131.175 22.9519 131.593 22.6768C132.014 22.4018 132.504 22.2642 133.064 22.2642C133.604 22.2642 134.073 22.3885 134.471 22.6371C134.872 22.8823 135.182 23.2204 135.401 23.6513C135.623 24.0821 135.732 24.5743 135.729 25.1278V30H132.985V25.7045C132.988 25.3267 132.892 25.0301 132.696 24.8146C132.504 24.5992 132.236 24.4915 131.891 24.4915C131.666 24.4915 131.468 24.5412 131.299 24.6406C131.134 24.7367 131.006 24.8759 130.916 25.0582C130.827 25.2372 130.781 25.4527 130.777 25.7045ZM141.638 22.3636V24.3523H136.606V22.3636H141.638ZM137.581 20.5341H140.325V27.544C140.325 27.6501 140.343 27.7396 140.38 27.8125C140.416 27.8821 140.473 27.9351 140.549 27.9716C140.625 28.0047 140.723 28.0213 140.842 28.0213C140.925 28.0213 141.021 28.0114 141.131 27.9915C141.243 27.9716 141.326 27.955 141.379 27.9418L141.777 29.8707C141.654 29.9072 141.479 29.9519 141.25 30.005C141.025 30.058 140.756 30.0928 140.445 30.1094C139.815 30.1425 139.286 30.0779 138.859 29.9155C138.431 29.7498 138.11 29.4896 137.894 29.1349C137.679 28.7803 137.574 28.3362 137.581 27.8026V20.5341ZM145.228 22.0455V19.8182H154.078V22.0455H151.015V30H148.291V22.0455H145.228ZM157.729 30.1392C156.901 30.1392 156.192 29.9751 155.602 29.647C155.012 29.3156 154.559 28.8549 154.244 28.2649C153.93 27.6716 153.772 26.9839 153.772 26.2017C153.772 25.4195 153.93 24.7334 154.244 24.1435C154.559 23.5502 155.012 23.0895 155.602 22.7614C156.192 22.4299 156.901 22.2642 157.729 22.2642C158.558 22.2642 159.267 22.4299 159.857 22.7614C160.447 23.0895 160.9 23.5502 161.215 24.1435C161.529 24.7334 161.687 25.4195 161.687 26.2017C161.687 26.9839 161.529 27.6716 161.215 28.2649C160.9 28.8549 160.447 29.3156 159.857 29.647C159.267 29.9751 158.558 30.1392 157.729 30.1392ZM157.749 28.1108C157.981 28.1108 158.182 28.0329 158.351 27.8771C158.52 27.7214 158.651 27.4993 158.744 27.2109C158.836 26.9226 158.883 26.5795 158.883 26.1818C158.883 25.7808 158.836 25.4377 158.744 25.1527C158.651 24.8643 158.52 24.6423 158.351 24.4865C158.182 24.3307 157.981 24.2528 157.749 24.2528C157.504 24.2528 157.294 24.3307 157.118 24.4865C156.942 24.6423 156.808 24.8643 156.715 25.1527C156.622 25.4377 156.576 25.7808 156.576 26.1818C156.576 26.5795 156.622 26.9226 156.715 27.2109C156.808 27.4993 156.942 27.7214 157.118 27.8771C157.294 28.0329 157.504 28.1108 157.749 28.1108ZM165.266 28.1903L165.286 24.929H165.644L167.494 22.3636H170.576L167.474 26.3608H166.698L165.266 28.1903ZM162.801 30V19.8182H165.545V30H162.801ZM167.514 30L165.764 26.9773L167.553 25.0284L170.656 30H167.514ZM174.635 30.1392C173.82 30.1392 173.117 29.9834 172.527 29.6719C171.941 29.357 171.488 28.9062 171.17 28.3196C170.855 27.7296 170.698 27.0237 170.698 26.2017C170.698 25.4129 170.857 24.7235 171.175 24.1335C171.493 23.5436 171.942 23.0845 172.522 22.7564C173.102 22.4283 173.787 22.2642 174.576 22.2642C175.152 22.2642 175.674 22.3537 176.142 22.5327C176.609 22.7116 177.008 22.9718 177.34 23.3132C177.671 23.6513 177.927 24.0623 178.106 24.5462C178.285 25.0301 178.374 25.5753 178.374 26.1818V26.8182H171.553V25.3068H175.848C175.845 25.0881 175.789 24.8958 175.679 24.7301C175.573 24.5611 175.429 24.4302 175.247 24.3374C175.068 24.2412 174.864 24.1932 174.635 24.1932C174.413 24.1932 174.209 24.2412 174.024 24.3374C173.838 24.4302 173.689 24.5594 173.576 24.7251C173.467 24.8909 173.409 25.0848 173.402 25.3068V26.9375C173.402 27.1828 173.454 27.4015 173.557 27.5938C173.659 27.786 173.807 27.9368 173.999 28.0462C174.191 28.1555 174.423 28.2102 174.695 28.2102C174.884 28.2102 175.056 28.1837 175.212 28.1307C175.371 28.0777 175.507 28.0014 175.62 27.902C175.732 27.7992 175.815 27.6766 175.868 27.5341H178.374C178.288 28.0644 178.084 28.5251 177.763 28.9162C177.441 29.304 177.015 29.6056 176.485 29.821C175.958 30.0331 175.341 30.1392 174.635 30.1392ZM182.238 25.7045V30H179.494V22.3636H182.099V23.8153H182.179C182.344 23.3314 182.636 22.9519 183.054 22.6768C183.474 22.4018 183.965 22.2642 184.525 22.2642C185.065 22.2642 185.534 22.3885 185.932 22.6371C186.333 22.8823 186.643 23.2204 186.862 23.6513C187.084 24.0821 187.193 24.5743 187.19 25.1278V30H184.446V25.7045C184.449 25.3267 184.353 25.0301 184.157 24.8146C183.965 24.5992 183.697 24.4915 183.352 24.4915C183.126 24.4915 182.929 24.5412 182.76 24.6406C182.594 24.7367 182.467 24.8759 182.377 25.0582C182.288 25.2372 182.242 25.4527 182.238 25.7045Z" fill="white"/>
<rect x="0.82106" y="1.07898" width="310" height="47" rx="15.5" stroke="white" stroke-opacity="0.08"/>
</svg>
