<svg width="320" height="49" viewBox="0 0 320 49" fill="none" xmlns="http://www.w3.org/2000/svg">
<path d="M123.969 29.3101V19.1282H128.364C129.12 19.1282 129.781 19.2774 130.348 19.5757C130.915 19.874 131.355 20.2932 131.67 20.8335C131.985 21.3737 132.143 22.0051 132.143 22.7277C132.143 23.4568 131.98 24.0882 131.655 24.6218C131.334 25.1555 130.881 25.5665 130.298 25.8548C129.718 26.1432 129.04 26.2873 128.265 26.2873H125.64V24.1396H127.708C128.033 24.1396 128.309 24.0833 128.538 23.9706C128.77 23.8546 128.948 23.6905 129.07 23.4784C129.196 23.2663 129.259 23.016 129.259 22.7277C129.259 22.436 129.196 22.1874 129.07 21.9819C128.948 21.7731 128.77 21.614 128.538 21.5047C128.309 21.392 128.033 21.3356 127.708 21.3356H126.733V29.3101H123.969ZM135.941 19.1282V29.3101H133.197V19.1282H135.941ZM139.467 29.4294C138.98 29.4294 138.549 29.3498 138.174 29.1907C137.803 29.0283 137.511 28.7831 137.299 28.4549C137.087 28.1268 136.981 27.7092 136.981 27.2021C136.981 26.7845 137.052 26.4282 137.195 26.1332C137.337 25.8349 137.536 25.5913 137.792 25.4024C138.047 25.2135 138.343 25.0693 138.681 24.9699C139.023 24.8704 139.391 24.8058 139.785 24.776C140.213 24.7428 140.556 24.7031 140.814 24.6566C141.076 24.6069 141.265 24.539 141.381 24.4528C141.497 24.3633 141.555 24.2457 141.555 24.0998V24.0799C141.555 23.8811 141.479 23.7286 141.326 23.6226C141.174 23.5165 140.978 23.4635 140.74 23.4635C140.478 23.4635 140.264 23.5215 140.098 23.6375C139.936 23.7502 139.838 23.9242 139.805 24.1595H137.279C137.313 23.6955 137.46 23.2679 137.722 22.8768C137.987 22.4824 138.373 22.1675 138.88 21.9322C139.387 21.6936 140.02 21.5743 140.779 21.5743C141.326 21.5743 141.817 21.6389 142.251 21.7682C142.685 21.8941 143.055 22.0714 143.36 22.3001C143.665 22.5255 143.897 22.7906 144.056 23.0956C144.218 23.3972 144.299 23.7253 144.299 24.0799V29.3101H141.734V28.2362H141.674C141.522 28.5212 141.336 28.7516 141.118 28.9272C140.902 29.1029 140.655 29.2305 140.377 29.3101C140.102 29.3896 139.798 29.4294 139.467 29.4294ZM140.362 27.6993C140.571 27.6993 140.766 27.6562 140.949 27.57C141.134 27.4838 141.285 27.3595 141.401 27.1971C141.517 27.0347 141.575 26.8375 141.575 26.6055V25.9691C141.502 25.999 141.424 26.0272 141.341 26.0537C141.262 26.0802 141.176 26.105 141.083 26.1282C140.993 26.1514 140.897 26.173 140.794 26.1929C140.695 26.2128 140.591 26.231 140.481 26.2476C140.269 26.2807 140.095 26.3354 139.959 26.4116C139.827 26.4845 139.727 26.5757 139.661 26.6851C139.598 26.7911 139.566 26.9104 139.566 27.043C139.566 27.2551 139.641 27.4175 139.79 27.5302C139.939 27.6429 140.13 27.6993 140.362 27.6993ZM149.29 29.4493C148.461 29.4493 147.752 29.2852 147.162 28.9571C146.572 28.6256 146.119 28.1649 145.805 27.575C145.49 26.9817 145.332 26.294 145.332 25.5118C145.332 24.7296 145.49 24.0435 145.805 23.4535C146.119 22.8602 146.572 22.3995 147.162 22.0714C147.752 21.74 148.461 21.5743 149.29 21.5743C150.039 21.5743 150.687 21.7102 151.233 21.9819C151.784 22.2504 152.21 22.6316 152.511 23.1254C152.813 23.6159 152.965 24.1926 152.969 24.8555H150.423C150.387 24.4545 150.271 24.1495 150.075 23.9407C149.883 23.7286 149.634 23.6226 149.329 23.6226C149.091 23.6226 148.882 23.6922 148.703 23.8314C148.524 23.9673 148.385 24.1744 148.285 24.4528C148.186 24.7279 148.136 25.0743 148.136 25.4919C148.136 25.9095 148.186 26.2575 148.285 26.5359C148.385 26.811 148.524 27.0182 148.703 27.1574C148.882 27.2932 149.091 27.3612 149.329 27.3612C149.532 27.3612 149.711 27.3148 149.866 27.222C150.022 27.1259 150.148 26.9867 150.244 26.8044C150.344 26.6188 150.403 26.3934 150.423 26.1282H152.969C152.959 26.8011 152.805 27.3877 152.506 27.8882C152.208 28.3853 151.785 28.7698 151.238 29.0416C150.695 29.3134 150.045 29.4493 149.29 29.4493ZM157.76 29.4493C156.945 29.4493 156.242 29.2935 155.652 28.9819C155.065 28.6671 154.613 28.2163 154.295 27.6297C153.98 27.0397 153.822 26.3337 153.822 25.5118C153.822 24.7229 153.982 24.0335 154.3 23.4436C154.618 22.8536 155.067 22.3946 155.647 22.0665C156.227 21.7383 156.911 21.5743 157.7 21.5743C158.277 21.5743 158.799 21.6638 159.266 21.8427C159.734 22.0217 160.133 22.2819 160.464 22.6233C160.796 22.9613 161.051 23.3723 161.23 23.8562C161.409 24.3401 161.499 24.8853 161.499 25.4919V26.1282H154.678V24.6169H158.973C158.97 24.3981 158.913 24.2059 158.804 24.0402C158.698 23.8711 158.554 23.7402 158.371 23.6474C158.192 23.5513 157.989 23.5032 157.76 23.5032C157.538 23.5032 157.334 23.5513 157.148 23.6474C156.963 23.7402 156.814 23.8695 156.701 24.0352C156.592 24.2009 156.534 24.3948 156.527 24.6169V26.2476C156.527 26.4928 156.578 26.7116 156.681 26.9038C156.784 27.096 156.931 27.2468 157.124 27.3562C157.316 27.4656 157.548 27.5203 157.82 27.5203C158.009 27.5203 158.181 27.4938 158.337 27.4407C158.496 27.3877 158.632 27.3115 158.744 27.212C158.857 27.1093 158.94 26.9867 158.993 26.8441H161.499C161.412 27.3745 161.209 27.8352 160.887 28.2263C160.566 28.614 160.14 28.9156 159.609 29.1311C159.082 29.3432 158.466 29.4493 157.76 29.4493ZM167.535 29.4294C167.048 29.4294 166.617 29.3498 166.243 29.1907C165.872 29.0283 165.58 28.7831 165.368 28.4549C165.156 28.1268 165.05 27.7092 165.05 27.2021C165.05 26.7845 165.121 26.4282 165.263 26.1332C165.406 25.8349 165.605 25.5913 165.86 25.4024C166.115 25.2135 166.412 25.0693 166.75 24.9699C167.091 24.8704 167.459 24.8058 167.854 24.776C168.281 24.7428 168.624 24.7031 168.883 24.6566C169.144 24.6069 169.333 24.539 169.449 24.4528C169.565 24.3633 169.623 24.2457 169.623 24.0998V24.0799C169.623 23.8811 169.547 23.7286 169.395 23.6226C169.242 23.5165 169.047 23.4635 168.808 23.4635C168.546 23.4635 168.332 23.5215 168.167 23.6375C168.004 23.7502 167.907 23.9242 167.873 24.1595H165.348C165.381 23.6955 165.528 23.2679 165.79 22.8768C166.055 22.4824 166.442 22.1675 166.949 21.9322C167.456 21.6936 168.089 21.5743 168.848 21.5743C169.395 21.5743 169.885 21.6389 170.319 21.7682C170.754 21.8941 171.123 22.0714 171.428 22.3001C171.733 22.5255 171.965 22.7906 172.124 23.0956C172.287 23.3972 172.368 23.7253 172.368 24.0799V29.3101H169.802V28.2362H169.743C169.59 28.5212 169.405 28.7516 169.186 28.9272C168.97 29.1029 168.724 29.2305 168.445 29.3101C168.17 29.3896 167.867 29.4294 167.535 29.4294ZM168.43 27.6993C168.639 27.6993 168.835 27.6562 169.017 27.57C169.202 27.4838 169.353 27.3595 169.469 27.1971C169.585 27.0347 169.643 26.8375 169.643 26.6055V25.9691C169.57 25.999 169.492 26.0272 169.41 26.0537C169.33 26.0802 169.244 26.105 169.151 26.1282C169.062 26.1514 168.966 26.173 168.863 26.1929C168.763 26.2128 168.659 26.231 168.55 26.2476C168.337 26.2807 168.163 26.3354 168.028 26.4116C167.895 26.4845 167.796 26.5757 167.729 26.6851C167.666 26.7911 167.635 26.9104 167.635 27.043C167.635 27.2551 167.709 27.4175 167.858 27.5302C168.008 27.6429 168.198 27.6993 168.43 27.6993ZM176.428 29.3101V19.1282H179.173V23.0061H179.212C179.312 22.7476 179.458 22.5106 179.65 22.2951C179.842 22.0764 180.081 21.9024 180.366 21.7731C180.651 21.6406 180.982 21.5743 181.36 21.5743C181.864 21.5743 182.343 21.7085 182.797 21.977C183.254 22.2454 183.625 22.668 183.911 23.2447C184.199 23.8214 184.343 24.5705 184.343 25.4919C184.343 26.3735 184.205 27.1043 183.93 27.6843C183.659 28.2644 183.294 28.6969 182.837 28.9819C182.383 29.267 181.884 29.4095 181.34 29.4095C180.982 29.4095 180.662 29.3515 180.381 29.2355C180.102 29.1162 179.864 28.9554 179.665 28.7532C179.469 28.5477 179.318 28.3157 179.212 28.0572H179.153V29.3101H176.428ZM179.113 25.4919C179.113 25.8631 179.161 26.1846 179.257 26.4564C179.357 26.7248 179.496 26.9336 179.675 27.0828C179.857 27.2286 180.074 27.3015 180.326 27.3015C180.578 27.3015 180.792 27.2303 180.967 27.0878C181.146 26.9419 181.282 26.7348 181.375 26.4663C181.471 26.1945 181.519 25.8697 181.519 25.4919C181.519 25.114 181.471 24.7909 181.375 24.5224C181.282 24.2506 181.146 24.0435 180.967 23.901C180.792 23.7551 180.578 23.6822 180.326 23.6822C180.074 23.6822 179.857 23.7551 179.675 23.901C179.496 24.0435 179.357 24.2506 179.257 24.5224C179.161 24.7909 179.113 25.114 179.113 25.4919ZM185.491 29.3101V21.6737H188.236V29.3101H185.491ZM186.864 20.8782C186.492 20.8782 186.174 20.7556 185.909 20.5103C185.644 20.2651 185.511 19.9701 185.511 19.6254C185.511 19.2807 185.644 18.9857 185.909 18.7405C186.174 18.4952 186.492 18.3726 186.864 18.3726C187.238 18.3726 187.556 18.4952 187.818 18.7405C188.083 18.9857 188.216 19.2807 188.216 19.6254C188.216 19.9701 188.083 20.2651 187.818 20.5103C187.556 20.7556 187.238 20.8782 186.864 20.8782ZM192.398 29.4095C191.855 29.4095 191.354 29.267 190.897 28.9819C190.443 28.6969 190.078 28.2644 189.803 27.6843C189.531 27.1043 189.395 26.3735 189.395 25.4919C189.395 24.5705 189.538 23.8214 189.823 23.2447C190.111 22.668 190.483 22.2454 190.937 21.977C191.394 21.7085 191.875 21.5743 192.378 21.5743C192.756 21.5743 193.088 21.6406 193.373 21.7731C193.658 21.9024 193.896 22.0764 194.089 22.2951C194.281 22.5106 194.427 22.7476 194.526 23.0061H194.566V19.1282H197.31V29.3101H194.586V28.0572H194.526C194.42 28.3157 194.268 28.5477 194.069 28.7532C193.873 28.9554 193.635 29.1162 193.353 29.2355C193.074 29.3515 192.756 29.4095 192.398 29.4095ZM193.412 27.3015C193.664 27.3015 193.88 27.2286 194.059 27.0828C194.241 26.9336 194.38 26.7248 194.476 26.4564C194.576 26.1846 194.626 25.8631 194.626 25.4919C194.626 25.114 194.576 24.7909 194.476 24.5224C194.38 24.2506 194.241 24.0435 194.059 23.901C193.88 23.7551 193.664 23.6822 193.412 23.6822C193.161 23.6822 192.945 23.7551 192.766 23.901C192.59 24.0435 192.455 24.2506 192.358 24.5224C192.266 24.7909 192.219 25.114 192.219 25.4919C192.219 25.8697 192.266 26.1945 192.358 26.4663C192.455 26.7348 192.59 26.9419 192.766 27.0878C192.945 27.2303 193.161 27.3015 193.412 27.3015Z" fill="white"/>
<rect x="0.5" y="0.810059" width="319" height="47" rx="15.5" stroke="white" stroke-opacity="0.08"/>
</svg>
