<svg width="35" height="35" viewBox="0 0 35 35" fill="none" xmlns="http://www.w3.org/2000/svg">
<g clip-path="url(#clip0_13_2077)">
<path fill-rule="evenodd" clip-rule="evenodd" d="M10.8923 16.2377C10.8923 12.9516 13.5562 10.2877 16.8423 10.2877C20.1283 10.2877 22.7923 12.9516 22.7923 16.2377C22.7923 19.5237 20.1283 22.1877 16.8423 22.1877C13.5562 22.1877 10.8923 19.5237 10.8923 16.2377ZM16.8423 7.90771C12.2417 7.90771 8.51227 11.6372 8.51227 16.2377C8.51227 20.8382 12.2417 24.5677 16.8423 24.5677C18.7176 24.5677 20.4482 23.948 21.8404 22.9021C21.8738 22.9465 21.9105 22.9889 21.9509 23.0291L25.5209 26.5991C25.9856 27.0639 26.739 27.0639 27.2037 26.5991C27.6684 26.1344 27.6684 25.381 27.2037 24.9163L23.6337 21.3463C23.5935 21.3059 23.551 21.2692 23.5067 21.2359C24.5525 19.8436 25.1723 18.113 25.1723 16.2377C25.1723 11.6372 21.4428 7.90771 16.8423 7.90771Z" fill="white"/>
</g>
<defs>
<clipPath id="clip0_13_2077">
<rect width="34" height="34" fill="white" transform="translate(0.356934 0.427734)"/>
</clipPath>
</defs>
</svg>
