<svg width="312" height="49" viewBox="0 0 312 49" fill="none" xmlns="http://www.w3.org/2000/svg">
<path d="M137.434 23C137.407 22.6686 137.283 22.41 137.061 22.2244C136.842 22.0388 136.509 21.946 136.062 21.946C135.777 21.946 135.543 21.9808 135.361 22.0504C135.182 22.1167 135.049 22.2079 134.963 22.3239C134.877 22.4399 134.832 22.5724 134.829 22.7216C134.822 22.8442 134.844 22.9553 134.893 23.0547C134.946 23.1508 135.029 23.2386 135.142 23.3182C135.255 23.3944 135.399 23.464 135.575 23.527C135.75 23.59 135.959 23.6463 136.201 23.696L137.036 23.875C137.6 23.9943 138.082 24.1518 138.483 24.3473C138.884 24.5429 139.212 24.7732 139.467 25.0384C139.723 25.3002 139.91 25.5952 140.029 25.9233C140.152 26.2514 140.215 26.6094 140.218 26.9972C140.215 27.6667 140.047 28.2334 139.716 28.6974C139.384 29.1615 138.911 29.5144 138.294 29.7564C137.681 29.9983 136.943 30.1193 136.082 30.1193C135.197 30.1193 134.424 29.9884 133.765 29.7266C133.109 29.4647 132.598 29.062 132.234 28.5185C131.872 27.9716 131.69 27.2723 131.687 26.4205H134.312C134.328 26.732 134.406 26.9938 134.545 27.206C134.685 27.4181 134.88 27.5788 135.132 27.6882C135.387 27.7976 135.691 27.8523 136.042 27.8523C136.337 27.8523 136.584 27.8158 136.783 27.7429C136.982 27.67 137.132 27.5689 137.235 27.4396C137.338 27.3104 137.391 27.1629 137.394 26.9972C137.391 26.8414 137.339 26.7055 137.24 26.5895C137.144 26.4702 136.985 26.3641 136.763 26.2713C136.541 26.1752 136.241 26.0857 135.863 26.0028L134.849 25.7841C133.947 25.5885 133.236 25.2621 132.716 24.8047C132.199 24.344 131.942 23.7159 131.945 22.9205C131.942 22.2741 132.114 21.709 132.462 21.2251C132.814 20.7379 133.299 20.3584 133.919 20.0866C134.542 19.8149 135.256 19.679 136.062 19.679C136.884 19.679 137.595 19.8165 138.195 20.0916C138.795 20.3667 139.257 20.7545 139.582 21.255C139.91 21.7521 140.076 22.3338 140.079 23H137.434ZM146.261 26.6591V22.3636H149.005V30H146.4V28.5483H146.321C146.155 29.0355 145.865 29.4167 145.451 29.6918C145.036 29.9635 144.544 30.0994 143.974 30.0994C143.44 30.0994 142.973 29.9768 142.572 29.7315C142.174 29.4863 141.864 29.1482 141.642 28.7173C141.424 28.2865 141.313 27.7926 141.309 27.2358V22.3636H144.054V26.6591C144.057 27.0369 144.153 27.3336 144.342 27.549C144.534 27.7644 144.803 27.8722 145.147 27.8722C145.376 27.8722 145.573 27.8241 145.739 27.728C145.908 27.6286 146.037 27.4893 146.127 27.3104C146.22 27.1281 146.264 26.911 146.261 26.6591ZM150.361 30V19.8182H153.106V23.696H153.145C153.245 23.4375 153.391 23.2005 153.583 22.9851C153.775 22.7663 154.014 22.5923 154.299 22.4631C154.584 22.3305 154.915 22.2642 155.293 22.2642C155.797 22.2642 156.276 22.3984 156.73 22.6669C157.187 22.9354 157.559 23.358 157.844 23.9347C158.132 24.5114 158.276 25.2604 158.276 26.1818C158.276 27.0634 158.139 27.7943 157.863 28.3743C157.592 28.9543 157.227 29.3868 156.77 29.6719C156.316 29.9569 155.817 30.0994 155.273 30.0994C154.915 30.0994 154.595 30.0414 154.314 29.9254C154.035 29.8061 153.797 29.6454 153.598 29.4432C153.402 29.2377 153.251 29.0057 153.145 28.7472H153.086V30H150.361ZM153.046 26.1818C153.046 26.553 153.094 26.8745 153.19 27.1463C153.29 27.4148 153.429 27.6236 153.608 27.7727C153.79 27.9186 154.007 27.9915 154.259 27.9915C154.511 27.9915 154.725 27.9202 154.9 27.7777C155.079 27.6319 155.215 27.4247 155.308 27.1562C155.404 26.8845 155.452 26.5597 155.452 26.1818C155.452 25.804 155.404 25.4808 155.308 25.2124C155.215 24.9406 155.079 24.7334 154.9 24.5909C154.725 24.4451 154.511 24.3722 154.259 24.3722C154.007 24.3722 153.79 24.4451 153.608 24.5909C153.429 24.7334 153.29 24.9406 153.19 25.2124C153.094 25.4808 153.046 25.804 153.046 26.1818ZM159.425 30V22.3636H162.03V23.8153H162.109C162.268 23.3381 162.54 22.9602 162.925 22.6818C163.309 22.4034 163.766 22.2642 164.297 22.2642C164.834 22.2642 165.296 22.4067 165.684 22.6918C166.072 22.9735 166.305 23.348 166.385 23.8153H166.464C166.594 23.348 166.869 22.9735 167.29 22.6918C167.711 22.4067 168.204 22.2642 168.771 22.2642C169.504 22.2642 170.097 22.4995 170.551 22.9702C171.008 23.4408 171.237 24.0672 171.237 24.8494V30H168.493V25.5455C168.493 25.2107 168.408 24.9489 168.239 24.7599C168.07 24.5677 167.843 24.4716 167.558 24.4716C167.276 24.4716 167.053 24.5677 166.887 24.7599C166.724 24.9489 166.643 25.2107 166.643 25.5455V30H164.018V25.5455C164.018 25.2107 163.934 24.9489 163.765 24.7599C163.596 24.5677 163.369 24.4716 163.084 24.4716C162.895 24.4716 162.732 24.5147 162.596 24.6009C162.461 24.687 162.354 24.8113 162.278 24.9737C162.205 25.1328 162.169 25.3234 162.169 25.5455V30H159.425ZM172.591 30V22.3636H175.335V30H172.591ZM173.963 21.5682C173.592 21.5682 173.273 21.4455 173.008 21.2003C172.743 20.955 172.61 20.66 172.61 20.3153C172.61 19.9706 172.743 19.6757 173.008 19.4304C173.273 19.1851 173.592 19.0625 173.963 19.0625C174.337 19.0625 174.655 19.1851 174.917 19.4304C175.182 19.6757 175.315 19.9706 175.315 20.3153C175.315 20.66 175.182 20.955 174.917 21.2003C174.655 21.4455 174.337 21.5682 173.963 21.5682ZM181.287 22.3636V24.3523H176.256V22.3636H181.287ZM177.23 20.5341H179.975V27.544C179.975 27.6501 179.993 27.7396 180.029 27.8125C180.066 27.8821 180.122 27.9351 180.198 27.9716C180.275 28.0047 180.372 28.0213 180.492 28.0213C180.575 28.0213 180.671 28.0114 180.78 27.9915C180.893 27.9716 180.976 27.955 181.029 27.9418L181.426 29.8707C181.304 29.9072 181.128 29.9519 180.899 30.005C180.674 30.058 180.405 30.0928 180.094 30.1094C179.464 30.1425 178.936 30.0779 178.508 29.9155C178.08 29.7498 177.759 29.4896 177.544 29.1349C177.328 28.7803 177.224 28.3362 177.23 27.8026V20.5341Z" fill="white"/>
<rect x="0.82106" y="1.07898" width="310" height="47" rx="15.5" stroke="white" stroke-opacity="0.08"/>
</svg>
