<svg width="312" height="49" viewBox="0 0 312 49" fill="none" xmlns="http://www.w3.org/2000/svg">
<path d="M103.365 19.8182L105.453 26.9972H105.533L107.621 19.8182H110.743L107.382 30H103.604L100.243 19.8182H103.365ZM111.763 30V22.3636H114.508V30H111.763ZM113.136 21.5682C112.764 21.5682 112.446 21.4455 112.181 21.2003C111.916 20.955 111.783 20.66 111.783 20.3153C111.783 19.9706 111.916 19.6757 112.181 19.4304C112.446 19.1851 112.764 19.0625 113.136 19.0625C113.51 19.0625 113.828 19.1851 114.09 19.4304C114.355 19.6757 114.488 19.9706 114.488 20.3153C114.488 20.66 114.355 20.955 114.09 21.2003C113.828 21.4455 113.51 21.5682 113.136 21.5682ZM119.565 30.1392C118.75 30.1392 118.047 29.9834 117.457 29.6719C116.87 29.357 116.418 28.9062 116.1 28.3196C115.785 27.7296 115.628 27.0237 115.628 26.2017C115.628 25.4129 115.787 24.7235 116.105 24.1335C116.423 23.5436 116.872 23.0845 117.452 22.7564C118.032 22.4283 118.717 22.2642 119.505 22.2642C120.082 22.2642 120.604 22.3537 121.071 22.5327C121.539 22.7116 121.938 22.9718 122.27 23.3132C122.601 23.6513 122.856 24.0623 123.035 24.5462C123.214 25.0301 123.304 25.5753 123.304 26.1818V26.8182H116.483V25.3068H120.778C120.775 25.0881 120.718 24.8958 120.609 24.7301C120.503 24.5611 120.359 24.4302 120.177 24.3374C119.998 24.2412 119.794 24.1932 119.565 24.1932C119.343 24.1932 119.139 24.2412 118.954 24.3374C118.768 24.4302 118.619 24.5594 118.506 24.7251C118.397 24.8909 118.339 25.0848 118.332 25.3068V26.9375C118.332 27.1828 118.383 27.4015 118.486 27.5938C118.589 27.786 118.736 27.9368 118.929 28.0462C119.121 28.1555 119.353 28.2102 119.625 28.2102C119.814 28.2102 119.986 28.1837 120.142 28.1307C120.301 28.0777 120.437 28.0014 120.549 27.902C120.662 27.7992 120.745 27.6766 120.798 27.5341H123.304C123.218 28.0644 123.014 28.5251 122.692 28.9162C122.371 29.304 121.945 29.6056 121.415 29.821C120.888 30.0331 120.271 30.1392 119.565 30.1392ZM125.68 30L123.771 22.3636H126.515L127.39 27.017H127.45L128.424 22.3636H131.089L132.103 26.9773H132.163L132.998 22.3636H135.743L133.834 30H130.87L129.797 25.9034H129.717L128.643 30H125.68ZM139.327 19.8182H142.767L145.134 25.5852H145.253L147.62 19.8182H151.06V30H148.356V24.1136H148.276L146.009 29.9205H144.378L142.111 24.0739H142.032V30H139.327V19.8182ZM154.08 32.8636C153.765 32.8636 153.466 32.8388 153.18 32.7891C152.895 32.7427 152.645 32.678 152.43 32.5952L153.026 30.6463C153.252 30.7259 153.457 30.7772 153.643 30.8004C153.832 30.8236 153.993 30.8104 154.125 30.7607C154.261 30.7109 154.359 30.6165 154.418 30.4773L154.478 30.3381L151.793 22.3636H154.657L155.89 27.6534H155.97L157.222 22.3636H160.106L157.322 30.6364C157.183 31.0573 156.98 31.4351 156.715 31.7699C156.453 32.108 156.109 32.3748 155.681 32.5703C155.254 32.7659 154.72 32.8636 154.08 32.8636ZM172.445 19.8182V30H170.139L166.46 24.6506H166.4V30H163.636V19.8182H165.982L169.602 25.1477H169.681V19.8182H172.445ZM173.753 30V19.8182H180.912V22.0455H176.517V23.7955H180.475V26.0227H176.517V30H173.753ZM181.65 22.0455V19.8182H190.5V22.0455H187.437V30H184.713V22.0455H181.65ZM197.521 24.8494H194.995C194.982 24.6937 194.927 24.5594 194.831 24.4467C194.735 24.334 194.611 24.2479 194.458 24.1882C194.309 24.1252 194.143 24.0938 193.961 24.0938C193.726 24.0938 193.524 24.1368 193.355 24.223C193.186 24.3092 193.103 24.4318 193.106 24.5909C193.103 24.7036 193.151 24.808 193.25 24.9041C193.353 25.0002 193.55 25.0748 193.842 25.1278L195.393 25.4062C196.175 25.5488 196.757 25.7891 197.138 26.1271C197.523 26.4619 197.716 26.911 197.72 27.4744C197.716 28.018 197.554 28.4903 197.233 28.8913C196.914 29.2891 196.478 29.5973 195.925 29.8161C195.375 30.0315 194.747 30.1392 194.041 30.1392C192.874 30.1392 191.961 29.9006 191.301 29.4233C190.645 28.946 190.279 28.3163 190.203 27.5341H192.927C192.964 27.776 193.083 27.9633 193.285 28.0959C193.491 28.2251 193.749 28.2898 194.061 28.2898C194.313 28.2898 194.52 28.2467 194.682 28.1605C194.848 28.0743 194.932 27.9517 194.936 27.7926C194.932 27.6468 194.859 27.5308 194.717 27.4446C194.578 27.3584 194.359 27.2888 194.061 27.2358L192.708 26.9972C191.929 26.8613 191.346 26.6027 190.958 26.2216C190.571 25.8404 190.378 25.3499 190.382 24.75C190.378 24.2197 190.518 23.7706 190.799 23.4027C191.084 23.0315 191.49 22.7498 192.017 22.5575C192.548 22.362 193.176 22.2642 193.902 22.2642C195.005 22.2642 195.875 22.4929 196.512 22.9503C197.151 23.4077 197.488 24.0407 197.521 24.8494Z" fill="white"/>
<rect x="0.82106" y="1.07898" width="310" height="47" rx="15.5" stroke="white" stroke-opacity="0.08"/>
</svg>
